Did not see this here in 720p.									

												

												

												

All credit to the original uploader.								

												

												

											

Enjoy and please share.										

												

												

											

TTLTTLTTLTTLTTLTTLTTLTTLTTLTTLTTLTTLTTLTTLTTLTTLTTL						

												

												

												

												

							


Silent_Witness_S15_E08_720p.HDTV.x264.fov_TTL.mkv
Format                           : Matroska
File size                        : 919 MiB
Duration                         : 58mn 57s
Overall bit rate                 : 2 180 Kbps
Movie name                       : silent.witness.15x08.720p.hdtv.x264.fov.mkv 19495
Encoded date                     : UTC 2012-04-25 20:40:13
Writing application              : mkvmerge v2.4.0 ('Fumbling Towards Ecstasy') built on 

Oct 11 2008 20:13:15
Writing library                  : libebml v0.7.7 + libmatroska v0.8.1

Video
ID                               : 1
Format                           : AVC
Format/Info                      : Advanced Video Codec
Format profile                   : High@L4.1
Format settings, CABAC           : Yes
Format settings, ReFrames        : 5 frames
Format settings, GOP             : M=4, N=16
Muxing mode                      : Container profile=Unknown@4.1
Codec ID                         : V_MPEG4/ISO/AVC
Duration                         : 58mn 57s
Bit rate                         : 1 945 Kbps
Width                            : 1 280 pixels
Height                           : 720 pixels
Display aspect ratio             : 16:9
Frame rate                       : 25.000 fps
Color space                      : YUV
Chroma subsampling               : 4:2:0
Bit depth                        : 8 bits
Scan type                        : Progressive
Bits/(Pixel*Frame)               : 0.084
Stream size                      : 820 MiB (89%)
Writing library                  : x264 core 122 r2184 5c85e0a

Language                         : English

Audio
ID                               : 2
Format                           : AC-3
Format/Info                      : Audio Coding 3
Mode extension                   : CM (complete main)
Codec ID                         : A_AC3
Duration                         : 58mn 57s
Bit rate mode                    : Constant
Bit rate                         : 192 Kbps
Channel(s)                       : 2 channels
Channel positions                : Front: L R
Sampling rate                    : 48.0 KHz
Stream size                      : 81.0 MiB (9%)





